<svg xmlns="http://www.w3.org/2000/svg" viewBox="0 0 627.63 85.38"><defs><style>.cls-1{fill:#231f20;}</style></defs><g id="Layer_2" data-name="Layer 2"><g id="Layer_1-2" data-name="Layer 1"><path class="cls-1" d="M36.24,84.08l-.83-7.22h-.36a21.32,21.32,0,0,1-17.52,8.52C5.92,85.38,0,77.21,0,68.92,0,55.07,12.32,47.49,34.46,47.61V46.42c0-4.74-1.3-13.26-13-13.26A28.63,28.63,0,0,0,6.51,37.42L4.14,30.55C8.88,27.47,15.75,25.46,23,25.46c17.53,0,21.79,12,21.79,23.45V70.34a80.74,80.74,0,0,0,1,13.74ZM34.7,54.83c-11.37-.24-24.28,1.78-24.28,12.91,0,6.75,4.5,10,9.83,10a14.27,14.27,0,0,0,13.86-9.6,11,11,0,0,0,.59-3.31Z"/><path class="cls-1" d="M61.58,44.65c0-6.76-.12-12.56-.47-17.89h9.11L70.58,38h.47c2.61-7.69,8.88-12.55,15.87-12.55a11.06,11.06,0,0,1,3,.36v9.83a15.4,15.4,0,0,0-3.55-.36c-7.34,0-12.55,5.57-14,13.38a29,29,0,0,0-.48,4.86V84.08H61.58Z"/><path class="cls-1" d="M140,82c-2.73,1.42-8.77,3.31-16.47,3.31C106.22,85.26,95,73.54,95,56s12.08-30.43,30.79-30.43a34.85,34.85,0,0,1,14.45,3l-2.37,8.05c-2.48-1.42-6.39-2.72-12.08-2.72-13.14,0-20.25,9.71-20.25,21.67C105.51,68.8,114,77,125.41,77a29.51,29.51,0,0,0,12.79-2.84Z"/><path class="cls-1" d="M152.17,0h10.42V35.76h.24a19.36,19.36,0,0,1,7.46-7.34,21.41,21.41,0,0,1,10.66-3c7.7,0,20,4.74,20,24.51V84.08H190.54V51.16c0-9.24-3.43-17-13.26-17a15,15,0,0,0-14,10.42,12.64,12.64,0,0,0-.71,5V84.08H152.17Z"/><path class="cls-1" d="M229.5,10.66c.12,3.55-2.49,6.39-6.63,6.39a6.2,6.2,0,0,1-6.28-6.39,6.36,6.36,0,0,1,6.52-6.52A6.19,6.19,0,0,1,229.5,10.66ZM217.9,84.08V26.76h10.42V84.08Z"/><path class="cls-1" d="M258.16,10.3V26.76h14.92V34.7H258.16V65.61c0,7.1,2,11.13,7.81,11.13a23.37,23.37,0,0,0,6-.71l.48,7.81a25.52,25.52,0,0,1-9.24,1.42c-4.85,0-8.76-1.54-11.25-4.38-3-3.08-4-8.17-4-14.92V34.7h-8.88V26.76H248V13Z"/><path class="cls-1" d="M289.9,57.32c.23,14.09,9.23,19.89,19.65,19.89,7.46,0,12-1.3,15.87-3l1.78,7.46c-3.67,1.66-9.95,3.55-19.07,3.55-17.64,0-28.18-11.6-28.18-28.89s10.18-30.91,26.88-30.91c18.71,0,23.69,16.46,23.69,27a39,39,0,0,1-.36,4.86Zm30.55-7.46c.12-6.64-2.72-16.94-14.45-16.94-10.54,0-15.16,9.71-16,16.94Z"/><path class="cls-1" d="M384.28,82c-2.73,1.42-8.77,3.31-16.46,3.31-17.29,0-28.54-11.72-28.54-29.25s12.08-30.43,30.79-30.43a34.89,34.89,0,0,1,14.45,3l-2.37,8.05c-2.49-1.42-6.4-2.72-12.08-2.72-13.15,0-20.25,9.71-20.25,21.67,0,13.26,8.52,21.43,19.89,21.43a29.51,29.51,0,0,0,12.79-2.84Z"/><path class="cls-1" d="M410.57,10.3V26.76h14.92V34.7H410.57V65.61c0,7.1,2,11.13,7.81,11.13a23.43,23.43,0,0,0,6-.71l.48,7.81a25.56,25.56,0,0,1-9.24,1.42c-4.86,0-8.77-1.54-11.25-4.38-3-3.08-4-8.17-4-14.92V34.7H391.5V26.76h8.88V13Z"/><path class="cls-1" d="M485.17,68.45c0,5.92.12,11.13.47,15.63h-9.23l-.6-9.36h-.23a21.58,21.58,0,0,1-18.95,10.66c-9,0-19.78-5-19.78-25.1V26.76h10.42V58.5c0,10.9,3.32,18.24,12.79,18.24a15.06,15.06,0,0,0,13.74-9.48,15.27,15.27,0,0,0,.95-5.33V26.76h10.42Z"/><path class="cls-1" d="M502.46,44.65c0-6.76-.12-12.56-.47-17.89h9.11L511.46,38h.47c2.61-7.69,8.89-12.55,15.87-12.55a11.06,11.06,0,0,1,3,.36v9.83a15.4,15.4,0,0,0-3.55-.36c-7.34,0-12.55,5.57-14,13.38a29,29,0,0,0-.48,4.86V84.08h-10.3Z"/><path class="cls-1" d="M545.8,57.32C546,71.41,555,77.21,565.46,77.21c7.46,0,12-1.3,15.87-3l1.78,7.46c-3.67,1.66-10,3.55-19.07,3.55-17.64,0-28.19-11.6-28.19-28.89S546,25.46,562.74,25.46c18.71,0,23.68,16.46,23.68,27a39.4,39.4,0,0,1-.35,4.86Zm30.56-7.46c.11-6.64-2.73-16.94-14.45-16.94-10.54,0-15.16,9.71-16,16.94Z"/><path class="cls-1" d="M599.33,44.65c0-6.76-.12-12.56-.48-17.89H608L608.33,38h.47c2.61-7.69,8.88-12.55,15.87-12.55a11.16,11.16,0,0,1,3,.36v9.83a15.46,15.46,0,0,0-3.55-.36c-7.34,0-12.55,5.57-14,13.38a30.12,30.12,0,0,0-.47,4.86V84.08h-10.3Z"/></g></g></svg>