<svg xmlns="http://www.w3.org/2000/svg" viewBox="0 0 321.56 43.75"><defs><style>.cls-1{fill:#fff;}</style></defs><g id="Layer_2" data-name="Layer 2"><g id="Layer_1-2" data-name="Layer 1"><path class="cls-1" d="M18.57,43.08l-.43-3.7H18a11,11,0,0,1-9,4.37c-6,0-9-4.19-9-8.44,0-7.1,6.31-11,17.66-10.92v-.61C17.66,21.36,17,17,11,17a14.65,14.65,0,0,0-7.64,2.18L2.12,15.65A18.32,18.32,0,0,1,11.77,13c9,0,11.16,6.13,11.16,12V36a41.73,41.73,0,0,0,.49,7Zm-.79-15C12,28,5.34,29,5.34,34.7a4.72,4.72,0,0,0,5,5.1,7.31,7.31,0,0,0,7.1-4.91,5.41,5.41,0,0,0,.31-1.7Z"/><path class="cls-1" d="M31.55,22.87c0-3.45-.06-6.43-.24-9.16H36l.18,5.77h.24C37.74,15.53,41,13,44.53,13a5.79,5.79,0,0,1,1.52.19v5a8.12,8.12,0,0,0-1.82-.18c-3.76,0-6.43,2.85-7.16,6.86a15,15,0,0,0-.24,2.48V43.08H31.55Z"/><path class="cls-1" d="M71.72,42a19.85,19.85,0,0,1-8.44,1.69c-8.86,0-14.62-6-14.62-15s6.19-15.59,15.77-15.59a17.87,17.87,0,0,1,7.41,1.51l-1.22,4.13a12.33,12.33,0,0,0-6.19-1.4c-6.73,0-10.37,5-10.37,11.11,0,6.79,4.37,11,10.19,11A15.15,15.15,0,0,0,70.81,38Z"/><path class="cls-1" d="M78,0H83.3V18.32h.13a9.87,9.87,0,0,1,3.82-3.76A11,11,0,0,1,92.71,13C96.65,13,103,15.47,103,25.6V43.08H97.62V26.21c0-4.73-1.76-8.74-6.79-8.74a7.67,7.67,0,0,0-7.16,5.34,6.36,6.36,0,0,0-.37,2.55V43.08H78Z"/><path class="cls-1" d="M117.58,5.46a3.31,3.31,0,0,1-6.61,0,3.26,3.26,0,0,1,3.34-3.34A3.17,3.17,0,0,1,117.58,5.46Zm-5.94,37.62V13.71H117V43.08Z"/><path class="cls-1" d="M132.27,5.28v8.43h7.64v4.07h-7.64V33.61c0,3.64,1,5.71,4,5.71a11.8,11.8,0,0,0,3.09-.37l.25,4a13.22,13.22,0,0,1-4.74.72,7.38,7.38,0,0,1-5.76-2.24c-1.52-1.58-2.06-4.19-2.06-7.65v-16H122.5V13.71h4.55v-7Z"/><path class="cls-1" d="M148.53,29.37c.12,7.22,4.73,10.19,10.07,10.19A19.29,19.29,0,0,0,166.73,38l.91,3.82a23.79,23.79,0,0,1-9.77,1.82c-9,0-14.44-5.94-14.44-14.8S148.65,13,157.2,13c9.59,0,12.14,8.44,12.14,13.84a20.51,20.51,0,0,1-.18,2.49Zm15.65-3.83c.06-3.39-1.4-8.67-7.4-8.67-5.4,0-7.77,5-8.19,8.67Z"/><path class="cls-1" d="M196.88,42a19.79,19.79,0,0,1-8.43,1.69c-8.86,0-14.62-6-14.62-15S180,13.11,189.6,13.11a17.78,17.78,0,0,1,7.4,1.51l-1.21,4.13a12.35,12.35,0,0,0-6.19-1.4c-6.73,0-10.37,5-10.37,11.11,0,6.79,4.36,11,10.19,11A15.14,15.14,0,0,0,196,38Z"/><path class="cls-1" d="M210.35,5.28v8.43H218v4.07h-7.65V33.61c0,3.64,1,5.71,4,5.71a12,12,0,0,0,3.1-.37l.24,4a13.19,13.19,0,0,1-4.73.72,7.36,7.36,0,0,1-5.76-2.24c-1.52-1.58-2.07-4.19-2.07-7.65v-16h-4.55V13.71h4.55v-7Z"/><path class="cls-1" d="M248.57,35.07c0,3,.06,5.7.25,8h-4.74l-.3-4.8h-.12A11.05,11.05,0,0,1,234,43.75c-4.61,0-10.13-2.55-10.13-12.87V13.71h5.34V30c0,5.58,1.7,9.35,6.55,9.35a7.72,7.72,0,0,0,7-4.86,7.89,7.89,0,0,0,.48-2.73v-18h5.34Z"/><path class="cls-1" d="M257.43,22.87c0-3.45-.06-6.43-.24-9.16h4.67l.18,5.77h.25c1.33-4,4.55-6.44,8.13-6.44a5.77,5.77,0,0,1,1.51.19v5a8.06,8.06,0,0,0-1.82-.18c-3.76,0-6.43,2.85-7.16,6.86a15,15,0,0,0-.24,2.48V43.08h-5.28Z"/><path class="cls-1" d="M279.64,29.37c.12,7.22,4.73,10.19,10.07,10.19A19.29,19.29,0,0,0,297.84,38l.91,3.82A23.79,23.79,0,0,1,289,43.68c-9,0-14.44-5.94-14.44-14.8S279.76,13,288.31,13c9.59,0,12.14,8.44,12.14,13.84a20.51,20.51,0,0,1-.18,2.49Zm15.65-3.83c.06-3.39-1.39-8.67-7.4-8.67-5.4,0-7.77,5-8.19,8.67Z"/><path class="cls-1" d="M307.06,22.87c0-3.45-.06-6.43-.24-9.16h4.67l.18,5.77h.25c1.33-4,4.55-6.44,8.13-6.44a5.77,5.77,0,0,1,1.51.19v5a8.06,8.06,0,0,0-1.82-.18c-3.76,0-6.43,2.85-7.16,6.86a15,15,0,0,0-.24,2.48V43.08h-5.28Z"/></g></g></svg>